<svg xmlns="http://www.w3.org/2000/svg" xmlns:xlink="http://www.w3.org/1999/xlink" width="511" height="152" viewBox="0 0 511 152">
    <defs>
        <path id="a" d="M5 7.007C5 5.9 5.899 5 6.992 5h497.016c1.1 0 1.992.888 1.992 2.007v137.986a2.004 2.004 0 0 1-1.992 2.007H6.992c-1.1 0-1.992-.888-1.992-2.007V7.007z"/>
        <mask id="b" width="501" height="142" x="0" y="0" fill="#fff">
            <use xlink:href="#a"/>
        </mask>
    </defs>
    <g fill="none" fill-rule="evenodd">
        <rect width="510" height="151" x=".5" y=".5" fill="#FFF" stroke="#DFE3E9" rx="4"/>
        <use fill="#FFF" stroke="#CED0DA" stroke-dasharray="6,6" stroke-width="4" mask="url(#b)" opacity=".638" xlink:href="#a"/>
        <path fill="#E2E3E9" d="M272.996 52.56a1.673 1.673 0 0 1-.942-1.762c.26-1.802.048-3.751-.956-5.798-1.543-3.144-4.602-5.46-8.134-5.91-4.289-.545-8.156 1.421-10.291 4.603-.535.797-1.664.952-2.462.408-1.758-1.197-4.053-1.676-6.491-.958-1.312.386-2.443 1.166-3.335 2.183-1.828 2.086-2.013 3.974-1.816 5.543.1.797-.362 1.548-1.075 1.943-2.824 1.567-4.689 4.592-4.478 8.046.285 4.651 4.513 8.142 9.268 8.142h7.705c1.476 0 3.024-.556 3.024-2.003v-2.999c0-.647-1.339-1-2-1l-2.155-.015c-.73 0-1.128-.874-.662-1.451l6.816-8.53c.477-.56 1.524-.56 2 0l6.785 8.53c.468.577.07 1.451-.66 1.451l-2.127.015c-.66 0-2 .353-2 1v2.999c0 1.447 1.668 2.003 3.145 2.003h6.665c4.391 0 8.368-2.996 9.063-7.244.659-4.032-1.529-7.606-4.887-9.197v.001z" opacity=".5"/>
    </g>
</svg>
