<?xml version="1.0" encoding="UTF-8"?>
<svg width="62px" height="62px" viewBox="0 0 62 62" version="1.1" xmlns="http://www.w3.org/2000/svg" xmlns:xlink="http://www.w3.org/1999/xlink">
    <!-- Generator: sketchtool 50.2 (55047) - http://www.bohemiancoding.com/sketch -->
    <title>C27798A8-9C73-428B-A3A2-8DBAD5B92AA2</title>
    <desc>Created with sketchtool.</desc>
    <defs></defs>
    <g id="Zeplin-Files" stroke="none" stroke-width="1" fill="none" fill-rule="evenodd">
        <g id="00_assets" transform="translate(-148.000000, -489.000000)">
            <g id="analytics_on" transform="translate(149.000000, 490.000000)">
                <g id="Group-5">
                    <circle id="Base" stroke="#FFFFFF" fill="#01C0C8" cx="30" cy="30" r="30"></circle>
                    <g id="analytics" transform="translate(17.000000, 17.000000)" fill="#FFFFFF" fill-rule="nonzero">
                        <path d="M3.24614815,19.9423035 L0.465871345,19.9423035 C0.210077973,19.9426576 0.00283820663,20.1494942 0.0024834308,20.4047899 L0.0024834308,25.9545253 L3.70953606,25.9545253 L3.70953606,20.4047899 C3.70918129,20.1495447 3.50194152,19.9426576 3.24614815,19.9423035 Z" id="Shape"></path>
                        <path d="M10.6602534,13.4675953 L7.87997661,13.4675953 C7.62418324,13.4679494 7.41694347,13.674786 7.41658869,13.9300817 L7.41658869,25.9545253 L11.1236413,25.9545253 L11.1236413,13.9300817 C11.1232865,13.6748366 10.9160468,13.4679494 10.6602534,13.4675953 Z" id="Shape"></path>
                        <path d="M18.0743587,16.2425136 L15.2940819,16.2425136 C15.0382885,16.2428677 14.8310487,16.4497043 14.830694,16.705 L14.830694,25.9545759 L18.5377466,25.9545759 L18.5377466,16.7049494 C18.5373918,16.4497043 18.3301014,16.2428171 18.0743587,16.2425136 Z" id="Shape"></path>
                        <path d="M25.4884133,12.5426732 L22.7081365,12.5426732 C22.4523431,12.5430272 22.2451033,12.7498638 22.2447485,13.0051595 L22.2447485,25.9545759 L25.9518012,25.9545759 L25.9518012,13.0051595 C25.9514971,12.7498638 25.7442066,12.5429767 25.4884133,12.5426732 Z" id="Shape"></path>
                        <path d="M22.8253645,4.17001556 C23.4292437,4.74171206 24.3411189,4.84110895 25.0543704,4.41291829 C25.7676218,3.98477821 26.1070916,3.13426459 25.8841404,2.33387938 C25.6611891,1.53349416 24.9306043,0.979906615 24.0983002,0.980614786 C23.5061287,0.972824903 22.9468499,1.25154086 22.5972943,1.72864591 C22.2477388,2.20575097 22.1512398,2.82221401 22.3382573,3.38303502 L17.9571306,6.1158677 C17.3090565,5.49419455 16.3049396,5.43324125 15.5861131,5.9719572 L10.9541092,2.66980545 C11.3287524,1.85328405 11.0615049,0.886124514 10.3204288,0.376747082 C9.57935283,-0.13263035 8.57868226,-0.0369766537 7.9479922,0.603564202 C7.31730214,1.24410506 7.23879532,2.24429572 7.76193762,2.97497665 L2.65367251,9.02928405 C1.81173879,8.6292179 0.803009747,8.91633074 0.299177388,9.69946693 C-0.204654971,10.4826031 -0.0465263158,11.5174942 0.668346979,12.1151401 C1.38322027,12.712786 2.43178558,12.6866848 3.11594542,12.0542879 C3.80010526,11.4218911 3.90648733,10.3804241 3.36418713,9.62328794 L8.47245224,3.56908171 C9.08763353,3.87172374 9.82125926,3.80201946 10.3682222,3.38900389 L15.0002261,6.69115564 C14.6429162,7.44480156 14.8334308,8.34377432 15.4658947,8.88845914 C16.0983587,9.43314397 17.0172788,9.48964591 17.7119298,9.02655253 C18.4065809,8.56345914 18.7062144,7.69458366 18.4442885,6.90289883 L22.8253645,4.17001556 Z" id="Shape"></path>
                    </g>
                </g>
            </g>
        </g>
    </g>
</svg>