<?xml version="1.0" encoding="UTF-8"?>
<svg width="12px" height="12px" viewBox="0 0 12 12" version="1.1" xmlns="http://www.w3.org/2000/svg" xmlns:xlink="http://www.w3.org/1999/xlink">
    <!-- Generator: sketchtool 50.2 (55047) - http://www.bohemiancoding.com/sketch -->
    <title>13E70152-85F0-4391-BF0E-ABABF72F7C16</title>
    <desc>Created with sketchtool.</desc>
    <defs></defs>
    <g id="Zeplin-Files" stroke="none" stroke-width="1" fill="none" fill-rule="evenodd">
        <g id="00_assets" transform="translate(-365.000000, -136.000000)">
            <g id="Group-18" transform="translate(350.000000, 92.000000)">
                <g id="Group-17" transform="translate(0.000000, 34.000000)">
                    <g id="checkbox_on" transform="translate(15.000000, 10.000000)">
                        <rect id="Rectangle-8" fill="#01C0C8" x="0" y="0" width="12" height="12"></rect>
                        <path d="M2.68077533,6.3500061 C2.62692918,6.3000061 2.6000061,6.2250061 2.6000061,6.1750061 C2.6000061,6.1250061 2.62692918,6.0500061 2.68077533,6.0000061 L3.05769841,5.6500061 C3.16539072,5.5500061 3.32692918,5.5500061 3.43462149,5.6500061 L3.46154457,5.6750061 L4.9423138,7.1500061 C4.99615995,7.2000061 5.07692918,7.2000061 5.13077533,7.1500061 L8.73846764,3.6750061 L8.76539072,3.6750061 C8.87308303,3.5750061 9.03462149,3.5750061 9.1423138,3.6750061 L9.51923687,4.0250061 C9.62692918,4.1250061 9.62692918,4.2750061 9.51923687,4.3750061 L5.21154457,8.5250061 C5.15769841,8.5750061 5.10385226,8.6000061 5.02308303,8.6000061 C4.9423138,8.6000061 4.88846764,8.5750061 4.83462149,8.5250061 L2.73462149,6.4250061 L2.68077533,6.3500061 Z" id="Shape" fill="#FFFFFF" fill-rule="nonzero"></path>
                    </g>
                </g>
            </g>
        </g>
    </g>
</svg>