<?xml version="1.0" encoding="UTF-8"?>
<svg width="62px" height="62px" viewBox="0 0 62 62" version="1.1" xmlns="http://www.w3.org/2000/svg" xmlns:xlink="http://www.w3.org/1999/xlink">
    <!-- Generator: sketchtool 50.2 (55047) - http://www.bohemiancoding.com/sketch -->
    <title>57CE495B-EB6B-43EE-A8C3-DE726C628CDB</title>
    <desc>Created with sketchtool.</desc>
    <defs></defs>
    <g id="Zeplin-Files" stroke="none" stroke-width="1" fill="none" fill-rule="evenodd">
        <g id="00_assets" transform="translate(-19.000000, -379.000000)">
            <g id="content" transform="translate(20.000000, 380.000000)">
                <g id="Group-5">
                    <circle id="Base" stroke="#505B6C" cx="30" cy="30" r="30"></circle>
                    <g id="file-(1)" transform="translate(19.000000, 17.000000)" fill="#505B6C" fill-rule="nonzero">
                        <path d="M25.3097,16.1035333 L24.0751333,14.8685333 C23.5863333,14.3797333 22.7344,14.3797333 22.2456,14.8685333 L15.5761667,21.5375333 L14.6570667,24.9084333 L14.4321667,25.1333333 C14.2640333,25.3014667 14.2636,25.5727333 14.4295667,25.7421667 L14.4274,25.7508333 L14.4360667,25.7486667 C14.5201333,25.831 14.6293333,25.8730333 14.7385333,25.8730333 C14.8494667,25.8730333 14.9604,25.8305667 15.0449,25.7460667 L15.2698,25.5211667 L18.6407,24.6020667 L25.3097,17.9326333 C25.5541,17.6882333 25.6888667,17.3636667 25.6888667,17.0178667 C25.6888667,16.6720667 25.5541,16.3475 25.3097,16.1035333 Z M16.5767333,21.7628667 L21.0153667,17.3242333 L22.854,19.1628667 L18.4153667,23.6015 L16.5767333,21.7628667 Z M16.1854333,22.5970333 L17.5807667,23.9923667 L15.6624,24.5154 L16.1854333,22.5970333 Z M24.6969667,17.3199 L23.4667333,18.5501333 L21.6281,16.7115 L22.8583333,15.4812667 C23.0195333,15.3200667 23.3007667,15.3196333 23.4619667,15.4812667 L24.6969667,16.7162667 C24.7775667,16.7968667 24.8222,16.9039 24.8222,17.0178667 C24.8217667,17.1318333 24.7775667,17.2393 24.6969667,17.3199 Z" id="Shape"></path>
                        <path d="M14.4750667,20.8 L5.07823333,20.8 C4.83903333,20.8 4.6449,20.6063 4.6449,20.3666667 C4.6449,20.1270333 4.83903333,19.9333333 5.07823333,19.9333333 L15.3421667,19.9333333 L20.6782333,14.5972667 L20.6782333,6.3206 L14.3576333,0 L0.311566667,0 L0.311566667,26 L13.0117,26 L14.4126667,20.8624 L14.4750667,20.8 Z M13.7449,0.866666667 L19.8115667,6.93333333 L13.7449,6.93333333 L13.7449,0.866666667 Z M5.07823333,6.06666667 L9.41156667,6.06666667 C9.65076667,6.06666667 9.8449,6.26036667 9.8449,6.5 C9.8449,6.73963333 9.65076667,6.93333333 9.41156667,6.93333333 L5.07823333,6.93333333 C4.83903333,6.93333333 4.6449,6.73963333 4.6449,6.5 C4.6449,6.26036667 4.83903333,6.06666667 5.07823333,6.06666667 Z M5.07823333,9.53333333 L15.9115667,9.53333333 C16.1507667,9.53333333 16.3449,9.72703333 16.3449,9.96666667 C16.3449,10.2063 16.1507667,10.4 15.9115667,10.4 L5.07823333,10.4 C4.83903333,10.4 4.6449,10.2063 4.6449,9.96666667 C4.6449,9.72703333 4.83903333,9.53333333 5.07823333,9.53333333 Z M5.07823333,13 L15.9115667,13 C16.1507667,13 16.3449,13.1937 16.3449,13.4333333 C16.3449,13.6729667 16.1507667,13.8666667 15.9115667,13.8666667 L5.07823333,13.8666667 C4.83903333,13.8666667 4.6449,13.6729667 4.6449,13.4333333 C4.6449,13.1937 4.83903333,13 5.07823333,13 Z M5.07823333,16.4666667 L15.9115667,16.4666667 C16.1507667,16.4666667 16.3449,16.6603667 16.3449,16.9 C16.3449,17.1396333 16.1507667,17.3333333 15.9115667,17.3333333 L5.07823333,17.3333333 C4.83903333,17.3333333 4.6449,17.1396333 4.6449,16.9 C4.6449,16.6603667 4.83903333,16.4666667 5.07823333,16.4666667 Z" id="Shape"></path>
                    </g>
                    <g id="duplicate-content" transform="translate(21.000000, 21.000000)">
                        <g id="pencil-edit-button" transform="translate(1.054487, 9.619565)"></g>
                    </g>
                </g>
            </g>
        </g>
    </g>
</svg>