<svg xmlns="http://www.w3.org/2000/svg" width="16" height="16" viewBox="0 0 16 16">
    <path fill="#0A315A" fill-rule="evenodd" d="M15.008 2.81a1.19 1.19 0 0 1-.025 1.747L13.64 5.875a.716.716 0 0 1-.165.79l-.578.567a.757.757 0 0 1-.538.224c-.103 0-.185 0-.268-.042l-6.51 6.388a.362.362 0 0 1-.146.08l-3.72 1.197-.516.161c0 .02-.022.02-.043.02H1.013a.676.676 0 0 1-.517-.223.51.51 0 0 1-.061-.101c-.061-.101-.103-.263-.061-.466.02 0 .02-.02.02-.041l.125-.364.125-.364 1.155-3.45c.021-.018.021-.04.043-.06v-.02c0-.02.02-.04.042-.06l6.491-6.37c-.122-.285-.082-.628.145-.852l.578-.567a.843.843 0 0 1 .785-.161L11.226.843c.226-.243.56-.365.888-.365.33 0 .64.12.888.365l2.006 1.967zM5.355 12.99l6.181-6.083-1.054-1.034-6.18 6.083 1.053 1.035zm4.59-7.645L8.89 4.312l-6.18 6.063 1.055 1.054 6.18-6.084zm-7.98 8.862l2.688-.87L3.495 12.2l-1.158-1.136-.888 2.637.517.506zm10.542-7.604l.455-.484c-.019 0-.04-.021-.061-.042L9.655 2.893l-.042-.041-.455.465c.042.02.061.04.103.081l3.204 3.164c.02 0 .02.02.042.041zm1.963-2.555a.522.522 0 0 0 0-.71l-2.005-1.966a.52.52 0 0 0-.703 0l-1.301 1.277 2.708 2.675 1.301-1.276z"/>
</svg>
