<svg xmlns="http://www.w3.org/2000/svg" width="12" height="11" viewBox="0 0 12 11">
    <path fill="#354052" fill-rule="evenodd" d="M11.25 7.857c.414 0 .75.352.75.786 0 .434-.336.786-.75.786h-.856c.062-.253.106-.513.106-.786s-.044-.534-.106-.786h.856zM7.5 9.43c.414 0 .75-.352.75-.786 0-.434-.336-.786-.75-.786s-.75.352-.75.786c0 .434.336.786.75.786zm0-3.143c1.243 0 2.25 1.055 2.25 2.357C9.75 9.945 8.743 11 7.5 11S5.25 9.945 5.25 8.643c0-1.302 1.007-2.357 2.25-2.357zM.75 7.857h3.857a3.227 3.227 0 0 0-.107.786c0 .273.044.533.107.786H.75c-.414 0-.75-.352-.75-.786 0-.434.336-.786.75-.786zm0-4.714c-.414 0-.75-.352-.75-.786 0-.434.336-.786.75-.786h.856a3.264 3.264 0 0 0-.106.786c0 .274.043.534.106.786H.75zM4.5 1.57c-.414 0-.75.352-.75.786 0 .434.336.786.75.786s.75-.352.75-.786c0-.434-.336-.786-.75-.786zm0 3.143c-1.243 0-2.25-1.055-2.25-2.357C2.25 1.055 3.257 0 4.5 0s2.25 1.055 2.25 2.357c0 1.302-1.007 2.357-2.25 2.357zm6.75-1.571H7.394c.062-.252.106-.512.106-.786 0-.272-.044-.533-.106-.786h3.856c.414 0 .75.352.75.786 0 .434-.336.786-.75.786z" opacity=".257"/>
</svg>
