<svg xmlns="http://www.w3.org/2000/svg" width="62" height="62" viewBox="0 0 62 62">
    <g fill="none" fill-rule="evenodd" transform="translate(1 1)">
        <circle cx="30" cy="30" r="30" fill="#01C0C8" stroke="#FFF"/>
        <g fill="#FFF" fill-rule="nonzero">
            <path d="M23.063 28.928a.535.535 0 1 0 1.07.002.535.535 0 0 0-1.07-.002z"/>
            <path d="M29.466 35.893h-4.365l-.346 1.734a1.598 1.598 0 0 1-.694 3.067 1.593 1.593 0 0 1-1.498-1.4 1.596 1.596 0 0 1 1.115-1.721l.377-1.89c.1-.5.538-.86 1.046-.862h4.365v-2.143h-1.165a1.6 1.6 0 0 1-3.11-.535 1.6 1.6 0 1 1 3.11-.536h1.165v-2.143H25.1a1.6 1.6 0 0 1-3.11-.535 1.6 1.6 0 1 1 3.11-.536h4.367v-4.221l-1.447 2.035a1.072 1.072 0 0 1-1.298.359l-1.938-.854a1.612 1.612 0 0 1-2.05.297 1.627 1.627 0 0 1-.66-1.971 1.616 1.616 0 0 1 3.124.605c0 .027-.006.052-.008.078l1.96.864 2.317-3.257v-3.31a4.008 4.008 0 0 0-3.884-4.016 4.006 4.006 0 0 0-4.109 3.784 4.82 4.82 0 0 1 3.615 2.374.538.538 0 0 1-.461.804.534.534 0 0 1-.463-.267 3.73 3.73 0 0 0-4.202-1.748 3.748 3.748 0 0 0-2.77 3.622c0 .485.092.965.276 1.414a5.288 5.288 0 0 1 1.86-.342.535.535 0 0 1 0 1.071 4.215 4.215 0 0 0-2.34.705c-.067.045-.13.093-.195.14a4.493 4.493 0 0 0-.44.372c-.049.049-.095.1-.143.15-.12.13-.233.267-.337.41-.033.047-.068.092-.1.14a4.315 4.315 0 0 0-.257.45c-.04.08-.081.158-.116.24-.06.14-.112.285-.156.432-.018.06-.031.12-.046.18-.03.119-.057.239-.077.36a4.41 4.41 0 0 0-.063.707 4.305 4.305 0 0 0 1.405 3.174 5.063 5.063 0 0 1 2.173-1.343.536.536 0 0 1 .314 1.024 3.985 3.985 0 0 0-1.984 1.38c-.004.004-.004.01-.008.015a3.948 3.948 0 0 0-.762 1.72c-.005.023-.013.044-.017.067a4.067 4.067 0 0 0-.053.66 3.996 3.996 0 0 0 2.684 3.795c-.006-.104-.016-.207-.016-.314a5.868 5.868 0 0 1 1.173-3.537.533.533 0 0 1 .747-.106.537.537 0 0 1 .107.749 4.833 4.833 0 0 0-.866 3.844c.007.038.018.074.026.11.026.114.054.226.087.337.012.04.027.08.04.12.035.106.072.21.114.313l.049.111a4.818 4.818 0 0 0 .381.703l.053.08c.07.103.144.202.222.298l.046.059c.089.107.182.21.28.309l.019.021c.212.212.442.404.69.573.035.024.072.045.108.068.085.055.171.109.26.159.052.03.106.055.16.083a5.128 5.128 0 0 0 .412.187 4.671 4.671 0 0 0 .666.209c.063.015.126.03.19.043.094.018.189.03.284.043.055.008.108.017.162.022.152.015.304.024.46.024 2.65-.003 4.8-2.16 4.802-4.822v-4.285z"/>
            <path d="M26.265 32.143a.535.535 0 1 0 1.07.001.535.535 0 0 0-1.07-.001zM23.063 24.643c0 .295.239.535.533.535a.536.536 0 0 0 0-1.071.535.535 0 0 0-.533.536zM30.534 27.375v5.25A2.676 2.676 0 0 0 32.668 30c0-1.273-.892-2.37-2.134-2.625z"/>
            <path d="M30.534 36.401c3.317-.276 5.87-3.06 5.87-6.401 0-3.342-2.553-6.126-5.87-6.402v2.695A3.74 3.74 0 0 1 33.735 30a3.74 3.74 0 0 1-3.201 3.707v2.694zM23.596 39.107a.535.535 0 1 0 1.07.002.535.535 0 0 0-1.07-.002z"/>
            <path d="M44.787 27.857h-2.812a.533.533 0 0 1-.521-.42 11.498 11.498 0 0 0-1.55-3.752.537.537 0 0 1 .071-.669l1.99-1.997a14.685 14.685 0 0 0-3.018-3.03l-1.99 1.997a.531.531 0 0 1-.666.072 11.404 11.404 0 0 0-3.738-1.556.535.535 0 0 1-.418-.524v-2.823a14.773 14.773 0 0 0-3.48-.087 5.088 5.088 0 0 1 1.879 3.95v3.509c3.907.277 6.937 3.54 6.937 7.473 0 3.932-3.03 7.196-6.937 7.473v2.705a5.89 5.89 0 0 1-2.346 4.702c1.311.164 2.639.152 3.947-.035V42.02c0-.251.174-.469.418-.523a11.404 11.404 0 0 0 3.737-1.556.533.533 0 0 1 .666.072l1.99 1.998a14.672 14.672 0 0 0 3.019-3.03l-1.99-1.998a.538.538 0 0 1-.072-.669 11.498 11.498 0 0 0 1.55-3.752.534.534 0 0 1 .522-.42h2.812a14.904 14.904 0 0 0 0-4.286z"/>
        </g>
    </g>
</svg>
