<?xml version="1.0" encoding="UTF-8"?>
<svg width="16px" height="20px" viewBox="0 0 16 20" version="1.1" xmlns="http://www.w3.org/2000/svg" xmlns:xlink="http://www.w3.org/1999/xlink">
    <!-- Generator: sketchtool 50.2 (55047) - http://www.bohemiancoding.com/sketch -->
    <title>A0852ED0-0038-4320-A380-4A990553240E</title>
    <desc>Created with sketchtool.</desc>
    <defs></defs>
    <g id="Zeplin-Files" stroke="none" stroke-width="1" fill="none" fill-rule="evenodd">
        <g id="00_assets" transform="translate(-1394.000000, -25.000000)" fill="#1D2531" fill-rule="nonzero">
            <g id="Group-10" transform="translate(320.000000, 0.000000)">
                <g id="Top-Bar">
                    <g id="Group-8" transform="translate(873.000000, 22.000000)">
                        <g id="notification" transform="translate(201.000000, 3.000000)">
                            <path d="M8,20 C9.10283041,20 9.99611696,19.0820673 9.99611696,17.9487019 L6.00392982,17.9487019 C6.00388304,19.0820673 6.89716959,20 8,20 Z" id="Shape"></path>
                            <path d="M13.9883041,13.8461538 L13.9883041,8.71793269 C13.9883041,5.56408654 12.3564912,2.93331731 9.49707602,2.23586538 L9.49707602,1.53846154 C9.49707602,0.687163462 8.82839766,0 8,0 C7.17160234,0 6.50292398,0.687163462 6.50292398,1.53846154 L6.50292398,2.23591346 C3.64350877,2.93336538 2.01169591,5.56413462 2.01169591,8.71798077 L2.01169591,13.8461538 L0.0155789474,15.8974519 L0.0155789474,16.9230769 L15.9843743,16.9230769 L15.9843743,15.8974519 L13.9883041,13.8461538 Z" id="Shape"></path>
                        </g>
                    </g>
                </g>
            </g>
        </g>
    </g>
</svg>