<svg xmlns="http://www.w3.org/2000/svg" width="29" height="39" viewBox="0 0 29 39">
    <g fill="#B0BAC7" fill-rule="nonzero" stroke="#B0BAC7">
        <path d="M25.343 37.822H3.479a2.503 2.503 0 0 1-2.5-2.5V7.029c0-1.378 1.122-2.5 2.5-2.5h3.682a.5.5 0 0 1 0 1H3.479c-.827 0-1.5.673-1.5 1.5v28.293c0 .827.673 1.5 1.5 1.5h21.863c.827 0 1.5-.673 1.5-1.5V7.029c0-.827-.673-1.5-1.5-1.5H21.66a.5.5 0 0 1 0-1h3.682c1.378 0 2.5 1.122 2.5 2.5v28.293a2.501 2.501 0 0 1-2.499 2.5z"/>
        <path d="M21.661 9.396h-14.5a.5.5 0 0 1-.5-.5V3.688a.5.5 0 0 1 .5-.5h4.609A2.693 2.693 0 0 1 14.411 1c1.311 0 2.406.944 2.641 2.188h4.609a.5.5 0 0 1 .5.5v5.209a.499.499 0 0 1-.5.499zm-14-1h13.5V4.188h-4.563a.5.5 0 0 1-.5-.5 1.688 1.688 0 0 0-3.375 0 .5.5 0 0 1-.5.5H7.66v4.208h.001zM12.661 28.356a.5.5 0 0 1-.457-.297l-2.368-5.33H5.661a.5.5 0 0 1 0-1h4.5a.5.5 0 0 1 .457.297l1.99 4.479 3.582-10.148a.502.502 0 0 1 .447-.333.48.48 0 0 1 .478.288l2.532 5.418h3.515a.5.5 0 0 1 0 1h-3.833a.5.5 0 0 1-.453-.288l-2.149-4.599-3.593 10.181a.5.5 0 0 1-.452.333l-.021-.001z"/>
    </g>
</svg>
