<svg xmlns="http://www.w3.org/2000/svg" width="42" height="42" viewBox="0 0 42 42">
    <g fill="#B2BCC9" fill-rule="nonzero" stroke="#BAC4CF">
        <path d="M21 18.333a4.672 4.672 0 0 0 4.667-4.666A4.672 4.672 0 0 0 21 9a4.672 4.672 0 0 0-4.667 4.667A4.672 4.672 0 0 0 21 18.333zm0-8a3.337 3.337 0 0 1 3.333 3.334A3.337 3.337 0 0 1 21 17a3.337 3.337 0 0 1-3.333-3.333A3.337 3.337 0 0 1 21 10.333z"/>
        <path d="M20.882 37.505l10.227-14.772c3.836-5.114 3.282-13.52-1.187-17.988A12.7 12.7 0 0 0 20.882 1c-3.415 0-6.625 1.33-9.04 3.745-4.469 4.468-5.023 12.874-1.203 17.968l10.243 14.792zM12.785 5.687a11.378 11.378 0 0 1 8.097-3.354c3.059 0 5.934 1.192 8.097 3.354 4.034 4.033 4.53 11.625 1.049 16.266l-9.146 13.209-9.16-13.229C8.254 17.312 8.751 9.72 12.784 5.687z"/>
        <path d="M29.078 29.671a.667.667 0 0 0-.156 1.324c7.01.826 10.745 3.05 10.745 4.338 0 1.81-7.102 4.334-18.667 4.334-11.565 0-18.667-2.524-18.667-4.334 0-1.288 3.734-3.512 10.745-4.338a.667.667 0 0 0-.156-1.324C5.902 30.498 1 32.826 1 35.333 1 38.15 7.87 41 21 41c13.13 0 20-2.85 20-5.667 0-2.507-4.903-4.835-11.922-5.662z"/>
    </g>
</svg>
