<svg xmlns="http://www.w3.org/2000/svg" width="36" height="36" viewBox="0 0 36 36">
    <g fill="#B0BAC7" fill-rule="nonzero">
        <path d="M18 0C8.075 0 0 8.074 0 18s8.075 18 18 18 18-8.074 18-18S27.925 0 18 0zm0 34.615C8.839 34.615 1.385 27.161 1.385 18 1.385 8.839 8.839 1.385 18 1.385c9.161 0 16.615 7.454 16.615 16.615 0 9.161-7.454 16.615-16.615 16.615z"/>
        <path d="M26.654 17.308h-7.962V9.692a.692.692 0 1 0-1.384 0v7.616H9.346a.692.692 0 1 0 0 1.384h7.962V27a.692.692 0 1 0 1.384 0v-8.308h7.962a.692.692 0 1 0 0-1.384z"/>
    </g>
</svg>
