<?xml version="1.0" encoding="UTF-8"?>
<svg width="16px" height="16px" viewBox="0 0 16 16" version="1.1" xmlns="http://www.w3.org/2000/svg" xmlns:xlink="http://www.w3.org/1999/xlink">
    <!-- Generator: sketchtool 50.2 (55047) - http://www.bohemiancoding.com/sketch -->
    <title>CC70434F-7E2C-453B-A5F8-32CF626A01CF</title>
    <desc>Created with sketchtool.</desc>
    <defs></defs>
    <g id="Zeplin-Files" stroke="none" stroke-width="1" fill="none" fill-rule="evenodd">
        <g id="00_assets" transform="translate(-1273.000000, -102.000000)" fill="#A1A7AF">
            <g id="Group-10" transform="translate(320.000000, 0.000000)">
                <g id="Actions" transform="translate(692.000000, 92.000000)">
                    <g id="Search-Box">
                        <g id="Group-13">
                            <path d="M271.5355,13.4645 C269.5825,11.5115 266.4175,11.5115 264.4645,13.4645 C262.5115,15.4175 262.5115,18.5825 264.4645,20.5355 C266.4175,22.4885 269.5825,22.4885 271.5355,20.5355 C273.4885,18.5825 273.4885,15.4175 271.5355,13.4645 M276.7355,25.7355 C276.3445,26.1255 275.7115,26.1255 275.3205,25.7355 L272.1715,22.5855 C269.4295,24.6355 265.5415,24.4415 263.0505,21.9495 C260.3165,19.2165 260.3165,14.7845 263.0505,12.0505 C265.7835,9.3165 270.2165,9.3165 272.9495,12.0505 C275.4415,14.5415 275.6355,18.4295 273.5855,21.1715 L276.7355,24.3215 C277.1255,24.7115 277.1255,25.3445 276.7355,25.7355" id="search"></path>
                        </g>
                    </g>
                </g>
            </g>
        </g>
    </g>
</svg>