<?xml version="1.0" encoding="UTF-8"?>
<svg width="12px" height="11px" viewBox="0 0 12 11" version="1.1" xmlns="http://www.w3.org/2000/svg" xmlns:xlink="http://www.w3.org/1999/xlink">
    <!-- Generator: sketchtool 50.2 (55047) - http://www.bohemiancoding.com/sketch -->
    <title>CB53F958-E735-4112-87E7-16D40E3D0205</title>
    <desc>Created with sketchtool.</desc>
    <defs></defs>
    <g id="Zeplin-Files" stroke="none" stroke-width="1" fill="none" fill-rule="evenodd" opacity="0.256584821">
        <g id="00_assets" transform="translate(-362.000000, -104.000000)" fill="#354052">
            <g id="Group-18" transform="translate(350.000000, 92.000000)">
                <g id="Select-Copy">
                    <path d="M23.25,19.8571429 C23.664,19.8571429 24,20.2091429 24,20.6428571 C24,21.0765714 23.664,21.4285714 23.25,21.4285714 L22.39425,21.4285714 C22.4565,21.1763571 22.5,20.9162857 22.5,20.6428571 C22.5,20.3702143 22.4565,20.1093571 22.39425,19.8571429 L23.25,19.8571429 Z M19.5,21.4285714 C19.914,21.4285714 20.25,21.0765714 20.25,20.6428571 C20.25,20.2091429 19.914,19.8571429 19.5,19.8571429 C19.086,19.8571429 18.75,20.2091429 18.75,20.6428571 C18.75,21.0765714 19.086,21.4285714 19.5,21.4285714 L19.5,21.4285714 Z M19.5,18.2857143 C20.74275,18.2857143 21.75,19.3409286 21.75,20.6428571 C21.75,21.9447857 20.74275,23 19.5,23 C18.25725,23 17.25,21.9447857 17.25,20.6428571 C17.25,19.3409286 18.25725,18.2857143 19.5,18.2857143 L19.5,18.2857143 Z M12.75,19.8571429 L16.6065,19.8571429 C16.5435,20.1093571 16.5,20.3702143 16.5,20.6428571 C16.5,20.9162857 16.5435,21.1763571 16.6065,21.4285714 L12.75,21.4285714 C12.336,21.4285714 12,21.0765714 12,20.6428571 C12,20.2091429 12.336,19.8571429 12.75,19.8571429 L12.75,19.8571429 Z M12.75,15.1428571 C12.336,15.1428571 12,14.7908571 12,14.3571429 C12,13.9234286 12.336,13.5714286 12.75,13.5714286 L13.60575,13.5714286 C13.5435,13.8236429 13.5,14.0845 13.5,14.3571429 C13.5,14.6305714 13.5435,14.8906429 13.60575,15.1428571 L12.75,15.1428571 Z M16.5,13.5714286 C16.086,13.5714286 15.75,13.9234286 15.75,14.3571429 C15.75,14.7908571 16.086,15.1428571 16.5,15.1428571 C16.914,15.1428571 17.25,14.7908571 17.25,14.3571429 C17.25,13.9234286 16.914,13.5714286 16.5,13.5714286 L16.5,13.5714286 Z M16.5,16.7142857 C15.25725,16.7142857 14.25,15.6590714 14.25,14.3571429 C14.25,13.0552143 15.25725,12 16.5,12 C17.74275,12 18.75,13.0552143 18.75,14.3571429 C18.75,15.6590714 17.74275,16.7142857 16.5,16.7142857 L16.5,16.7142857 Z M23.25,15.1428571 L19.39425,15.1428571 C19.4565,14.8906429 19.5,14.6305714 19.5,14.3571429 C19.5,14.0845 19.4565,13.8236429 19.39425,13.5714286 L23.25,13.5714286 C23.664,13.5714286 24,13.9234286 24,14.3571429 C24,14.7908571 23.664,15.1428571 23.25,15.1428571 L23.25,15.1428571 Z" id="Tools-Icon"></path>
                </g>
            </g>
        </g>
    </g>
</svg>