<?xml version="1.0" encoding="UTF-8"?>
<svg width="62px" height="62px" viewBox="0 0 62 62" version="1.1" xmlns="http://www.w3.org/2000/svg" xmlns:xlink="http://www.w3.org/1999/xlink">
    <!-- Generator: sketchtool 50.2 (55047) - http://www.bohemiancoding.com/sketch -->
    <title>81541D95-1B62-4E11-899B-FC0864EE06D9</title>
    <desc>Created with sketchtool.</desc>
    <defs></defs>
    <g id="Zeplin-Files" stroke="none" stroke-width="1" fill="none" fill-rule="evenodd">
        <g id="00_assets" transform="translate(-19.000000, -269.000000)">
            <g id="Trial" transform="translate(20.000000, 270.000000)">
                <circle id="Base" stroke="#505B6C" cx="30" cy="30" r="30"></circle>
                <g id="hierarchical-structure" transform="translate(18.000000, 15.000000)" fill="#505B6C" fill-rule="nonzero">
                    <path d="M17.5819592,11.8801837 C15.7329796,11.176102 14.6248163,10.4475306 14.6248163,10.4475306 L13.1982857,14.9536531 L13.0023673,15.565898 L12.3656327,13.7536531 C13.8350204,11.7087551 12.2554286,11.6107959 11.9799184,11.6046735 L11.9737959,11.6046735 C11.9737959,11.6046735 11.9737959,11.6046735 11.9676735,11.6046735 L11.961551,11.6046735 L11.9554286,11.6046735 C11.6799184,11.6046735 10.106449,11.7026327 11.5697143,13.7536531 L10.9329796,15.565898 L10.7370612,14.9536531 L9.31053061,10.4475306 C9.31053061,10.4475306 8.20236735,11.1699796 6.35338776,11.8801837 C4.52277551,12.5475306 4.44930612,13.9740612 4.41869388,16.5577347 C4.41257143,17.0475306 4.81053061,17.4454898 5.29420408,17.4454898 L11.5880816,17.4454898 L11.9799184,17.4454898 L18.6472653,17.4454898 C19.1370612,17.4454898 19.528898,17.0475306 19.5227755,16.5577347 C19.4982857,13.9801837 19.4186939,12.5475306 17.5819592,11.8801837 Z" id="Shape"></path>
                    <path d="M15.4574694,5.05365306 C15.5186939,4.88834694 15.561551,4.71691837 15.5921633,4.55161224 C16.1186939,1.39855102 14.5635918,1.28834694 14.5635918,1.28834694 C14.5635918,1.28834694 14.306449,0.792428571 13.6268571,0.418959184 C13.1737959,0.149571429 12.5370612,-0.0585918367 11.7044082,0.014877551 C11.4350204,0.027122449 11.1778776,0.0822244898 10.939102,0.161816327 C10.6329796,0.265897959 10.3513469,0.418959184 10.0942041,0.590387755 C9.78195918,0.786306122 9.48808163,1.03120408 9.22481633,1.30671429 C8.81461224,1.72916327 8.44726531,2.26793878 8.28808163,2.94753061 C8.15338776,3.45569388 8.184,3.98222449 8.29420408,4.55161224 C8.32481633,4.71691837 8.36767347,4.88222449 8.42889796,5.05365306 C8.12889796,5.03528571 7.76155102,5.21283673 8.10440816,6.43120408 C8.35542857,7.31895918 8.58808163,7.56997959 8.76563265,7.58834694 C8.93093878,8.64753061 9.74522449,9.99446939 11.0921633,10.465898 C11.6431837,10.6618163 12.2493061,10.6618163 12.7942041,10.4597755 C14.1166531,9.98222449 14.961551,8.64140816 15.1268571,7.58222449 C15.3044082,7.56997959 15.5370612,7.31895918 15.7880816,6.42508163 C16.1309388,5.20671429 15.7697143,5.02916327 15.4574694,5.05365306 Z" id="Shape"></path>
                    <path d="M21.9962449,24.6822245 L21.9962449,22.6189592 C21.9962449,21.865898 21.384,21.2536531 20.6309388,21.2536531 L12.739102,21.2536531 L12.739102,19.1107959 L11.1901224,19.1107959 L11.1901224,21.2536531 L3.34114286,21.2536531 C2.58808163,21.2536531 1.97583673,21.865898 1.97583673,22.6189592 L1.97583673,24.6883469 C0.843183673,25.0128367 0.0166530612,26.0536531 0.0166530612,27.2903878 C0.0105306122,28.7720204 1.22277551,29.9842653 2.71665306,29.9842653 C4.21053061,29.9842653 5.42277551,28.7720204 5.42277551,27.2781429 C5.42277551,26.065898 4.62073469,25.0373265 3.52481633,24.6944694 L3.52481633,22.7965102 L11.1901224,22.7965102 L11.1901224,24.6944694 C10.0819592,25.0373265 9.27991837,26.065898 9.27991837,27.2781429 C9.27991837,28.7720204 10.4921633,29.9842653 11.9860408,29.9842653 C13.4799184,29.9842653 14.6860408,28.7720204 14.6860408,27.2781429 C14.6860408,26.0475306 13.8595102,25.0067143 12.7329796,24.6822245 L12.7329796,22.7965102 L20.4411429,22.7965102 L20.4411429,24.7067143 C19.3513469,25.0556939 18.561551,26.0781429 18.561551,27.2842653 C18.561551,28.7781429 19.7737959,29.9903878 21.2676735,29.9903878 C22.761551,29.9903878 23.9737959,28.7781429 23.9737959,27.2842653 C23.9737959,26.0414694 23.1350204,25.0006531 21.9962449,24.6822245 Z" id="Shape"></path>
                </g>
                <g id="duplicate-content" transform="translate(21.000000, 21.000000)">
                    <g id="pencil-edit-button" transform="translate(1.054487, 9.619565)"></g>
                </g>
            </g>
        </g>
    </g>
</svg>