<svg xmlns="http://www.w3.org/2000/svg" width="12" height="14" viewBox="0 0 12 14">
    <g fill="#000" fill-rule="nonzero">
        <path d="M11.631 6.829c-.19 0-.343.192-.343.432v3.934c0 1.07-.691 1.938-1.537 1.938H2.224c-.85 0-1.538-.871-1.538-1.938V7.197c0-.24-.152-.432-.343-.432-.19 0-.343.192-.343.432v3.998c0 1.548.999 2.803 2.224 2.803H9.75c1.227 0 2.223-1.259 2.223-2.803V7.261c0-.237-.152-.432-.343-.432z"/>
        <path d="M3.493 3.497l2.053-2.012v8.775c0 .24.196.432.44.432a.435.435 0 0 0 .442-.432V1.485l2.053 2.012c.085.083.2.128.31.128a.43.43 0 0 0 .311-.128.425.425 0 0 0 0-.612L6.297.136a.451.451 0 0 0-.31-.128.432.432 0 0 0-.31.128L2.871 2.885a.425.425 0 0 0 0 .612c.17.166.45.166.62 0z"/>
    </g>
</svg>
