<?xml version="1.0" encoding="UTF-8"?>
<svg width="28px" height="28px" viewBox="0 0 28 28" version="1.1" xmlns="http://www.w3.org/2000/svg" xmlns:xlink="http://www.w3.org/1999/xlink">
    <!-- Generator: sketchtool 50.2 (55047) - http://www.bohemiancoding.com/sketch -->
    <title>73FFCB05-1F73-46B5-9DAA-43AA1A7A2B8D</title>
    <desc>Created with sketchtool.</desc>
    <defs>
        <circle id="path-1" cx="13" cy="13" r="13"></circle>
    </defs>
    <g id="Zeplin-Files" stroke="none" stroke-width="1" fill="none" fill-rule="evenodd">
        <g id="00_assets" transform="translate(-1342.000000, -21.000000)">
            <g id="Group-10" transform="translate(320.000000, 0.000000)">
                <g id="Top-Bar">
                    <g id="Group-8" transform="translate(873.000000, 22.000000)">
                        <g id="Group">
                            <g id="Action-Bar" transform="translate(150.000000, 0.000000)">
                                <g id="user">
                                    <mask id="mask-2" fill="white">
                                        <use xlink:href="#path-1"></use>
                                    </mask>
                                    <use id="Mask" stroke="#1D2531" stroke-width="0.722222222" xlink:href="#path-1"></use>
                                    <path d="M19.5050556,20.54325 L16.0553611,18.8185833 C15.73,18.6557222 15.5277778,18.3285556 15.5277778,17.9645556 L15.5277778,16.7436389 C15.6104722,16.6425278 15.6975,16.5273333 15.7874167,16.4002222 C16.2348333,15.7682778 16.5934167,15.0648333 16.8541389,14.3061389 C17.3636667,14.0725 17.6944444,13.56875 17.6944444,13 L17.6944444,11.5555556 C17.6944444,11.2078056 17.5644444,10.8708889 17.3333333,10.6076389 L17.3333333,8.68688889 C17.3535556,8.48827778 17.433,7.306 16.5778889,6.33063889 C15.8361667,5.48455556 14.6325833,5.05555556 13,5.05555556 C11.3674167,5.05555556 10.1638333,5.48455556 9.42211111,6.33027778 C8.567,7.30563889 8.64644444,8.48827778 8.66666667,8.68688889 L8.66666667,10.6076389 C8.43555556,10.8708889 8.30555556,11.2078056 8.30555556,11.5555556 L8.30555556,13 C8.30555556,13.4394722 8.50525,13.8493333 8.84613889,14.1226944 C9.17691667,15.4324444 9.86916667,16.4193611 10.1111111,16.7360556 L10.1111111,17.9309722 C10.1111111,18.2805278 9.92044444,18.6011944 9.61386111,18.76875 L6.39238889,20.5259167 C5.34480556,21.0975556 4.69444444,22.1931667 4.69444444,23.3862778 L4.69444444,24.5555556 C4.69444444,26.2693889 10.1273611,26.7222222 13,26.7222222 C15.8726389,26.7222222 21.3055556,26.2693889 21.3055556,24.5555556 L21.3055556,23.4566944 C21.3055556,22.2151944 20.6154722,21.0986389 19.5050556,20.54325 Z" id="Shape" fill="#1D2531" fill-rule="nonzero" mask="url(#mask-2)"></path>
                                </g>
                            </g>
                        </g>
                    </g>
                </g>
            </g>
        </g>
    </g>
</svg>