<?xml version="1.0" encoding="UTF-8"?>
<svg width="62px" height="62px" viewBox="0 0 62 62" version="1.1" xmlns="http://www.w3.org/2000/svg" xmlns:xlink="http://www.w3.org/1999/xlink">
    <!-- Generator: sketchtool 50.2 (55047) - http://www.bohemiancoding.com/sketch -->
    <title>4DBC273C-22A6-480E-9DDC-09107845885E</title>
    <desc>Created with sketchtool.</desc>
    <defs></defs>
    <g id="Zeplin-Files" stroke="none" stroke-width="1" fill="none" fill-rule="evenodd">
        <g id="00_assets" transform="translate(-19.000000, -159.000000)">
            <g id="User" transform="translate(20.000000, 160.000000)">
                <circle id="Base" stroke="#505B6C" cx="30" cy="30" r="30"></circle>
                <g id="multiple-users-silhouette" transform="translate(15.000000, 18.000000)" fill="#505B6C" fill-rule="nonzero">
                    <path d="M17.9092593,4.38308824 C19.2814815,5.23713235 20.2437037,6.68235294 20.4188889,8.35992647 C20.9785185,8.61948529 21.5996296,8.76875 22.2581481,8.76875 C24.6622222,8.76875 26.6107407,6.83455882 26.6107407,4.44852941 C26.6107407,2.06213235 24.6622222,0.127941176 22.2581481,0.127941176 C19.877037,0.128676471 17.9455556,2.02830882 17.9092593,4.38308824 Z M15.0577778,13.2294118 C17.4618519,13.2294118 19.4103704,11.2948529 19.4103704,8.90882353 C19.4103704,6.52279412 17.4614815,4.58860294 15.0577778,4.58860294 C12.6540741,4.58860294 10.7044444,6.52316176 10.7044444,8.90919118 C10.7044444,11.2952206 12.6540741,13.2294118 15.0577778,13.2294118 Z M16.9040741,13.5238971 L13.2107407,13.5238971 C10.1377778,13.5238971 7.63777778,16.0058824 7.63777778,19.05625 L7.63777778,23.5397059 L7.64925926,23.6099265 L7.96037037,23.7066176 C10.892963,24.6161765 13.4407407,24.9194853 15.5377778,24.9194853 C19.6337037,24.9194853 22.0077778,23.7602941 22.1540741,23.6863971 L22.4448148,23.5404412 L22.4759259,23.5404412 L22.4759259,19.05625 C22.477037,16.0058824 19.977037,13.5238971 16.9040741,13.5238971 Z M24.1051852,9.06360294 L20.4403704,9.06360294 C20.4007407,10.5191176 19.7748148,11.8297794 18.7848148,12.7724265 C21.5162963,13.5786765 23.5148148,16.0930147 23.5148148,19.0628676 L23.5148148,20.4444853 C27.1333333,20.3128676 29.2185185,19.2948529 29.3559259,19.2264706 L29.6466667,19.0801471 L29.6777778,19.0801471 L29.6777778,14.5952206 C29.6777778,11.5452206 27.1777778,9.06360294 24.1051852,9.06360294 Z M7.42037037,8.76948529 C8.27185185,8.76948529 9.06407407,8.52279412 9.73518519,8.10257353 C9.94851852,6.72132353 10.6944444,5.51433824 11.76,4.69227941 C11.7644444,4.61139706 11.7722222,4.53125 11.7722222,4.44963235 C11.7722222,2.06323529 9.82333333,0.129044118 7.42037037,0.129044118 C5.01592593,0.129044118 3.06777778,2.06323529 3.06777778,4.44963235 C3.06777778,6.83492647 5.01592593,8.76948529 7.42037037,8.76948529 Z M11.3292593,12.7724265 C10.3440741,11.8345588 9.72037037,10.5308824 9.67481481,9.08419118 C9.53888889,9.07426471 9.40444444,9.06360294 9.26592593,9.06360294 L5.57296296,9.06360294 C2.5,9.06360294 0,11.5452206 0,14.5952206 L0,19.0794118 L0.0114814815,19.1485294 L0.322592593,19.2459559 C2.67518519,19.975 4.77481481,20.3110294 6.59851852,20.4169118 L6.59851852,19.0628676 C6.59925926,16.0930147 8.59703704,13.5794118 11.3292593,12.7724265 Z" id="Shape"></path>
                </g>
            </g>
        </g>
    </g>
</svg>